<svg width="22" height="23" viewBox="0 0 22 23" fill="none" xmlns="http://www.w3.org/2000/svg">
<path d="M14.188 21.7368C14.9315 21.7368 14.9315 22.875 14.188 22.875H0.565209C0.253029 22.875 0 22.62 0 22.3058V5.168C0 5.01087 0.0632574 4.86835 0.1654 4.76553L4.60985 0.291777C4.7202 0.180684 4.86479 0.125 5.00938 0.125H17.7948C18.1069 0.125 18.3602 0.379989 18.3602 0.694246V10.6556C18.3602 11.4043 17.2295 11.4043 17.2295 10.6556V1.26322H5.24351L1.13069 5.40369V21.7368H14.188ZM4.57041 16.7203C3.82666 16.7203 3.82666 15.582 4.57041 15.582H12.9683C13.7121 15.582 13.7121 16.7203 12.9683 16.7203H4.57041ZM4.57041 9.14831C3.82666 9.14831 3.82666 8.01009 4.57041 8.01009H12.9683C13.7121 8.01009 13.7121 9.14831 12.9683 9.14831H4.57041ZM4.57041 11.6723C3.82666 11.6723 3.82666 10.5341 4.57041 10.5341H12.9683C13.7121 10.5341 13.7121 11.6723 12.9683 11.6723H4.57041ZM4.57041 14.1963C3.82666 14.1963 3.82666 13.0581 4.57041 13.0581H12.9683C13.7121 13.0581 13.7121 14.1963 12.9683 14.1963H4.57041ZM4.57041 6.62433C3.82666 6.62433 3.82666 5.48611 4.57041 5.48611H12.9683C13.7121 5.48611 13.7121 6.62433 12.9683 6.62433H4.57041ZM18.1686 13.192C19.5334 13.192 20.6397 14.3057 20.6397 15.6796C20.6397 16.1786 20.4937 16.6431 20.2426 17.0323C21.2714 17.7195 21.9259 18.8539 21.9988 20.0977C22.0423 20.8436 20.9157 20.9101 20.8725 20.1644C20.8147 19.1806 20.2533 18.3042 19.3902 17.8422C19.0298 18.049 18.613 18.1669 18.1686 18.1669C17.6877 18.1669 17.2389 18.0288 16.8593 17.7896C15.9436 18.2339 15.3368 19.1414 15.2768 20.1644C15.2332 20.9101 14.1069 20.8436 14.1505 20.0977C14.2269 18.7971 14.9378 17.62 16.0422 16.9474C15.8234 16.5761 15.6977 16.1427 15.6977 15.6796C15.6977 14.306 16.804 13.192 18.1686 13.192ZM18.1686 14.3302C17.4284 14.3302 16.8284 14.9345 16.8284 15.6796C16.8284 16.4247 17.4284 17.0287 18.1686 17.0287C18.9087 17.0287 19.509 16.4247 19.509 15.6796C19.509 14.9345 18.909 14.3302 18.1686 14.3302Z" fill="white"/>
</svg>
