<svg width="21" height="23" viewBox="0 0 21 23" fill="none" xmlns="http://www.w3.org/2000/svg">
<path d="M2 0.125V2.10326H0V22.875H21V6.05978H13V2.10326H11V0.125H2ZM3 1.11413H10V3.09239H12V21.8859H7.5V18.4239H5.5V21.8859H1V3.09239H3V1.11413ZM3 4.08152V5.07065H4V4.08152H3ZM5 4.08152V5.07065H6V4.08152H5ZM7 4.08152V5.07065H8V4.08152H7ZM9 4.08152V5.07065H10V4.08152H9ZM3 6.55435V8.53261H4V6.55435H3ZM5 6.55435V8.53261H6V6.55435H5ZM7 6.55435V8.53261H8V6.55435H7ZM9 6.55435V8.53261H10V6.55435H9ZM13 7.04891H20V21.8859H13V7.04891ZM14 8.03804V9.02717H15V8.03804H14ZM16 8.03804V9.02717H17V8.03804H16ZM18 8.03804V9.02717H19V8.03804H18ZM3 9.52174V11.5H4V9.52174H3ZM5 9.52174V11.5H6V9.52174H5ZM7 9.52174V11.5H8V9.52174H7ZM9 9.52174V11.5H10V9.52174H9ZM14 10.0163V11.0054H15V10.0163H14ZM16 10.0163V11.0054H17V10.0163H16ZM18 10.0163V11.0054H19V10.0163H18ZM14 11.9946V12.9837H15V11.9946H14ZM16 11.9946V12.9837H17V11.9946H16ZM18 11.9946V12.9837H19V11.9946H18ZM3 12.4891V14.4674H4V12.4891H3ZM5 12.4891V14.4674H6V12.4891H5ZM7 12.4891V14.4674H8V12.4891H7ZM9 12.4891V14.4674H10V12.4891H9ZM14 13.9728V14.962H15V13.9728H14ZM16 13.9728V14.962H17V13.9728H16ZM18 13.9728V14.962H19V13.9728H18ZM3 15.4565V17.4348H4V15.4565H3ZM5 15.4565V17.4348H6V15.4565H5ZM7 15.4565V17.4348H8V15.4565H7ZM9 15.4565V17.4348H10V15.4565H9ZM14 15.9511V16.9402H15V15.9511H14ZM16 15.9511V16.9402H17V15.9511H16ZM18 15.9511V16.9402H19V15.9511H18ZM14 17.9293V18.9185H15V17.9293H14ZM16 17.9293V18.9185H17V17.9293H16ZM18 17.9293V18.9185H19V17.9293H18ZM3 18.4239V20.8967H4V18.4239H3ZM9 18.4239V20.8967H10V18.4239H9ZM14 19.9076V20.8967H15V19.9076H14ZM16 19.9076V20.8967H17V19.9076H16ZM18 19.9076V20.8967H19V19.9076H18Z" fill="white"/>
</svg>
