<svg width="32" height="29" viewBox="0 0 32 29" fill="none" xmlns="http://www.w3.org/2000/svg">
<g clip-path="url(#clip0_668_1157)">
<path d="M1.52487 6.69824C1.18802 6.69824 0.92334 6.45654 0.92334 6.14893C0.92334 5.84131 1.18802 5.59961 1.52487 5.59961L29.797 5.64355C30.1339 5.64355 30.3985 5.88525 30.3985 6.19287C30.3985 6.50049 30.1339 6.74219 29.797 6.74219L1.52487 6.69824ZM6.16872 7.81885C6.16872 7.51123 6.4334 7.26953 6.77026 7.26953C7.10712 7.26953 7.37179 7.51123 7.37179 7.81885V26.7373L24.9847 26.5615V8.0166C24.9847 7.70898 25.2494 7.46728 25.5863 7.46728C25.9231 7.46728 26.1878 7.70898 26.1878 8.0166V27.7041L6.14466 27.9019V7.81885H6.16872Z" fill="#F50614"/>
<path d="M21.0867 23.8809C20.7499 23.8809 20.4852 23.6392 20.4852 23.3315V10.2798C20.4852 9.97217 20.7499 9.73047 21.0867 9.73047C21.4236 9.73047 21.6883 9.97217 21.6883 10.2798V23.3315C21.7123 23.6392 21.4236 23.8809 21.0867 23.8809ZM11.6066 23.8809C11.2697 23.8809 11.005 23.6392 11.005 23.3315V10.2798C11.005 9.97217 11.2697 9.73047 11.6066 9.73047C11.9434 9.73047 12.2081 9.97217 12.2081 10.2798V23.3315C12.2321 23.6392 11.9434 23.8809 11.6066 23.8809ZM16.3466 23.8809C16.0098 23.8809 15.7451 23.6392 15.7451 23.3315V10.2798C15.7451 9.97217 16.0098 9.73047 16.3466 9.73047C16.6835 9.73047 16.9482 9.97217 16.9482 10.2798V23.3315C16.9722 23.6392 16.6835 23.8809 16.3466 23.8809ZM20.2687 5.9292V4.58887C20.2687 4.10547 19.8355 3.70996 19.3062 3.70996H13.1465C12.5931 3.70996 12.184 4.10547 12.184 4.61084V5.77539H10.981V4.61084C10.981 3.51221 11.9675 2.61133 13.1705 2.61133H19.3303C20.5333 2.61133 21.5198 3.51221 21.5198 4.61084V5.95117H20.2687V5.9292Z" fill="#F50614"/>
</g>
<defs>
<clipPath id="clip0_668_1157">
<rect width="30.7986" height="28.125" fill="white" transform="translate(0.5625 0.0625)"/>
</clipPath>
</defs>
</svg>
