<svg width="705" height="681" viewBox="0 0 705 681" fill="none" xmlns="http://www.w3.org/2000/svg">
<g clip-path="url(#clip0_1658_1316)">
<rect width="705" height="681" fill="white"/>
<path d="M0 0C232.65 0 465.3 0 705 0C705 224.73 705 449.46 705 681C472.35 681 239.7 681 0 681C0 456.27 0 231.54 0 0Z" fill="#FEFEFE"/>
<path d="M299.273 235.285C300.163 235.976 300.9 236.778 301.652 237.605C301.871 237.839 302.09 238.073 302.316 238.313C303.784 239.892 305.182 241.52 306.553 243.178C307.935 244.782 309.425 246.287 310.902 247.808C311.908 248.845 312.883 249.903 313.844 250.979C314.541 251.753 315.257 252.51 315.972 253.268C317.049 254.418 318.077 255.59 319.079 256.801C320.628 258.654 322.295 260.386 323.993 262.112C324.195 262.318 324.396 262.524 324.604 262.736C324.873 263.007 324.873 263.007 325.147 263.285C325.426 263.583 325.426 263.583 325.71 263.887C325.958 264.096 326.206 264.305 326.462 264.52C327.502 266.21 327.132 267.778 326.935 269.686C326.879 270.314 326.879 270.314 326.822 270.955C326.717 272.107 326.605 273.257 326.488 274.407C326.416 275.12 326.346 275.834 326.277 276.547C325.948 279.935 325.595 283.319 325.238 286.704C325.082 288.185 324.927 289.666 324.773 291.147C324.51 293.661 324.246 296.175 323.982 298.689C323.604 302.277 323.229 305.865 322.854 309.454C322.683 311.085 322.512 312.717 322.342 314.349C322.308 314.669 322.274 314.99 322.24 315.321C321.906 318.508 321.572 321.695 321.238 324.881C320.344 333.414 319.455 341.947 318.572 350.481C318.541 350.781 318.51 351.081 318.478 351.39C316.754 367.919 316.754 367.919 315.172 384.462C315.148 384.731 315.124 385.001 315.098 385.278C314.989 386.488 314.882 387.697 314.778 388.906C314.608 390.837 314.416 392.757 314.146 394.676C313.991 395.798 313.857 396.92 313.725 398.044C313.682 398.396 313.638 398.747 313.593 399.109C313.38 402.272 314.763 404.73 316.193 407.472C316.45 407.98 316.706 408.488 316.961 408.997C317.491 410.049 318.026 411.099 318.565 412.147C319.33 413.636 320.084 415.13 320.834 416.627C320.952 416.862 321.07 417.097 321.191 417.339C321.427 417.81 321.663 418.28 321.899 418.751C322.253 419.457 322.608 420.162 322.964 420.867C324.627 424.167 326.236 427.488 327.824 430.822C329.491 434.307 331.229 437.757 332.973 441.207C334.635 444.495 336.267 447.794 337.849 451.12C339.761 455.136 341.756 459.11 343.767 463.081C346.164 467.816 348.484 472.58 350.738 477.381C352.829 473.421 354.852 469.438 356.774 465.4C358.532 461.708 360.347 458.048 362.194 454.397C363.987 450.852 365.753 447.299 367.459 443.714C369.366 439.709 371.354 435.747 373.359 431.787C375.275 428.002 377.144 424.202 378.965 420.373C380.927 416.266 382.984 412.203 385.044 408.141C385.395 407.446 385.741 406.749 386.087 406.051C386.436 405.361 386.798 404.675 387.192 404.008C388.525 401.643 388.069 399.269 387.75 396.682C387.7 396.229 387.65 395.775 387.6 395.321C387.415 393.648 387.21 391.977 387.003 390.306C386.613 387.148 386.298 383.99 386.039 380.819C385.497 374.203 384.826 367.6 384.134 360.996C384.094 360.614 384.094 360.614 384.053 360.224C383.745 357.278 383.435 354.332 383.124 351.387C382.555 345.986 381.99 340.585 381.425 335.184C381.366 334.616 381.307 334.048 381.247 333.48C380.144 322.922 379.079 312.361 378.046 301.797C377.867 299.963 377.687 298.13 377.507 296.296C377.464 295.862 377.464 295.862 377.421 295.419C376.995 291.086 376.547 286.756 376.083 282.426C376.053 282.148 376.024 281.87 375.993 281.583C375.714 278.983 375.434 276.384 375.148 273.785C375.073 273.097 374.998 272.409 374.923 271.722C374.833 270.899 374.742 270.077 374.65 269.255C374.105 264.237 374.105 264.237 375.04 262.931C375.344 262.636 375.649 262.34 375.963 262.036C376.287 261.714 376.611 261.392 376.944 261.06C377.253 260.757 377.562 260.454 377.88 260.142C378.303 259.685 378.722 259.224 379.136 258.759C380.058 257.734 380.993 256.723 381.934 255.715C383.63 253.899 385.304 252.067 386.945 250.204C388.996 247.877 391.08 245.591 393.228 243.347C393.961 242.577 394.683 241.799 395.395 241.01C395.587 240.803 395.779 240.595 395.976 240.381C396.594 239.694 396.594 239.694 397.215 238.841C398.899 236.713 398.899 236.713 400.135 236.546C401.105 236.718 401.979 237.007 402.908 237.328C403.559 237.511 404.21 237.693 404.863 237.871C405.63 238.083 406.393 238.303 407.157 238.526C409.115 239.095 411.078 239.649 413.042 240.201C413.404 240.303 413.765 240.405 414.138 240.51C416.421 241.153 418.707 241.787 420.995 242.415C424.312 243.325 427.618 244.271 430.923 245.22C433.246 245.887 435.571 246.544 437.903 247.182C439.782 247.7 441.658 248.228 443.533 248.757C444.066 248.906 444.066 248.906 444.609 249.059C445.631 249.347 446.653 249.637 447.675 249.927C448.011 250.022 448.347 250.117 448.693 250.215C449.01 250.306 449.326 250.396 449.652 250.49C449.934 250.57 450.216 250.65 450.506 250.733C451.2 250.948 451.2 250.948 451.905 251.289C451.905 385.003 451.905 518.718 451.905 656.484C384.786 656.484 317.666 656.484 248.513 656.484C248.513 522.77 248.513 389.055 248.513 251.289C250.025 250.84 251.537 250.39 253.095 249.927C253.988 249.646 254.88 249.362 255.769 249.072C256 248.997 256.231 248.922 256.469 248.844C257.218 248.601 257.967 248.356 258.716 248.111C259.253 247.936 259.791 247.761 260.328 247.586C261.752 247.122 263.175 246.657 264.598 246.192C265.48 245.904 266.361 245.616 267.243 245.328C275.12 242.756 282.989 240.162 290.833 237.495C291.582 237.241 292.332 236.987 293.082 236.733C293.841 236.476 294.599 236.216 295.355 235.953C298.146 235.003 298.146 235.003 299.273 235.285Z" fill="#5352E8"/>
<path d="M473.408 258.78C475.275 259.038 476.932 259.379 478.712 259.917C478.986 259.998 479.26 260.079 479.542 260.162C480.447 260.431 481.352 260.702 482.257 260.973C482.9 261.164 483.543 261.355 484.185 261.546C485.902 262.056 487.617 262.568 489.332 263.081C491.1 263.609 492.868 264.135 494.636 264.662C496.747 265.29 498.859 265.919 500.97 266.549C504.739 267.674 508.51 268.793 512.284 269.9C513.768 270.336 515.252 270.773 516.736 271.21C517.5 271.435 518.264 271.658 519.029 271.881C520.064 272.183 521.099 272.488 522.134 272.794C522.427 272.878 522.721 272.963 523.023 273.05C526.187 273.991 527.452 275.243 529.223 277.921C529.435 278.236 529.648 278.551 529.867 278.876C530.548 279.886 531.225 280.899 531.901 281.913C532.783 283.229 533.668 284.545 534.554 285.859C534.882 286.347 534.882 286.347 535.217 286.844C537.745 290.582 540.334 294.305 543.154 297.846C544.697 299.848 545.488 301.379 545.428 303.922C545.423 304.17 545.418 304.418 545.413 304.674C545.329 307.952 545.076 311.224 544.833 314.494C544.784 315.179 544.735 315.863 544.686 316.547C544.589 317.902 544.491 319.256 544.393 320.61C544.221 322.983 544.063 325.357 543.908 327.731C543.582 332.653 543.242 337.573 542.9 342.493C542.648 346.115 542.403 349.738 542.162 353.361C542.086 354.499 542.01 355.638 541.933 356.776C541.855 357.951 541.777 359.125 541.699 360.299C540.906 372.32 540.061 384.271 538.155 396.185C537.792 398.46 537.478 400.742 537.166 403.024C537.083 403.621 537.083 403.621 536.999 404.231C536.521 407.708 536.104 411.191 535.688 414.675C535.329 417.678 534.935 420.669 534.442 423.655C533.903 426.998 533.53 430.363 533.137 433.725C533.081 434.202 533.024 434.68 532.968 435.158C532.94 435.39 532.913 435.622 532.885 435.861C532.705 437.347 532.481 438.823 532.233 440.3C532.128 440.97 532.025 441.639 531.923 442.31C531.831 442.907 531.831 442.907 531.738 443.516C532.051 445.514 533.15 447.143 534.17 448.885C534.399 449.286 534.629 449.686 534.857 450.087C535.518 451.243 536.188 452.394 536.858 453.546C537.163 454.078 537.468 454.61 537.772 455.142C538.317 456.095 538.865 457.047 539.415 457.998C540.662 460.156 541.9 462.32 543.137 464.485C543.258 464.697 543.379 464.909 543.504 465.128C545.145 467.998 546.77 470.877 548.38 473.763C549.839 476.378 551.33 478.972 552.852 481.552C554.819 484.886 556.702 488.259 558.57 491.645C560.142 494.495 561.746 497.326 563.381 500.144C563.715 500.723 564.046 501.304 564.353 501.897C565.875 499.497 567.295 497.057 568.671 494.576C570.016 492.164 571.365 489.755 572.747 487.362C574.28 484.705 575.807 482.044 577.329 479.381C577.45 479.169 577.572 478.957 577.697 478.738C579.337 475.868 580.962 472.989 582.573 470.103C584.211 467.166 585.897 464.259 587.607 461.361C589.409 458.295 591.128 455.187 592.835 452.07C593.043 451.691 593.251 451.312 593.466 450.922C593.666 450.554 593.865 450.186 594.071 449.808C594.668 448.779 594.668 448.779 595.293 447.922C597.943 444.284 596.819 439.749 596.21 435.585C596.148 435.139 596.086 434.694 596.022 434.235C595.651 431.579 595.258 428.926 594.87 426.273C594.737 425.365 594.605 424.457 594.472 423.549C594.382 422.932 594.292 422.316 594.202 421.699C593.411 416.298 592.717 410.888 592.076 405.469C591.684 402.122 591.684 402.122 591.155 398.795C587.86 380.545 587.3 361.689 586.191 343.223C585.974 339.615 585.731 336.012 585.422 332.41C585.018 327.556 584.755 322.691 584.464 317.83C584.442 317.467 584.42 317.105 584.397 316.732C584.356 316.052 584.316 315.372 584.276 314.692C584.112 311.981 583.919 309.272 583.508 306.584C582.894 301.019 585.965 297.406 589.38 293.171C591.283 293.361 592.994 293.686 594.828 294.239C595.076 294.313 595.323 294.387 595.578 294.463C596.395 294.708 597.211 294.955 598.027 295.203C598.61 295.378 599.192 295.552 599.775 295.727C601.013 296.098 602.251 296.471 603.489 296.844C605.43 297.43 607.372 298.014 609.314 298.596C609.637 298.693 609.96 298.79 610.292 298.889C610.945 299.085 611.597 299.28 612.249 299.476C613.227 299.769 614.206 300.063 615.184 300.357C620.69 302.009 626.205 303.629 631.724 305.237C638.03 307.076 644.318 308.955 650.57 310.958C651.315 311.185 652.072 311.375 652.83 311.558C652.83 425.383 652.83 539.209 652.83 656.484C593.621 656.484 534.411 656.484 473.408 656.484C473.408 525.242 473.408 393.999 473.408 258.78Z" fill="#51F1CF"/>
<path d="M229.477 260.483C229.817 264.435 229.879 268.359 229.873 272.323C229.874 272.996 229.874 273.668 229.875 274.341C229.876 276.185 229.874 278.028 229.873 279.872C229.872 281.879 229.873 283.887 229.873 285.894C229.874 289.411 229.873 292.928 229.872 296.444C229.87 300.216 229.87 303.988 229.87 307.759C229.87 307.998 229.87 308.237 229.87 308.482C229.87 309.699 229.87 310.915 229.87 312.132C229.871 320.929 229.869 329.725 229.867 338.522C229.865 347.232 229.864 355.941 229.863 364.651C229.863 365.057 229.863 365.057 229.863 365.471C229.863 367.943 229.863 370.415 229.863 372.887C229.863 379.031 229.862 385.176 229.862 391.32C229.862 391.6 229.862 391.88 229.862 392.168C229.861 405.773 229.859 419.378 229.857 432.983C229.856 437.704 229.855 442.424 229.854 447.144C229.854 447.583 229.854 447.583 229.854 448.032C229.852 461.644 229.85 475.256 229.849 488.868C229.849 489.759 229.849 490.65 229.849 491.54C229.848 500.824 229.848 510.107 229.847 519.391C229.847 519.656 229.847 519.921 229.847 520.194C229.847 520.677 229.847 521.16 229.847 521.642C229.844 566.589 229.836 611.537 229.83 656.484C171.202 656.484 112.574 656.484 52.1699 656.484C52.1699 545.018 52.1699 433.552 52.1699 318.708C56.2808 317.454 60.3918 316.202 64.5074 314.963C64.6237 313.614 64.7401 312.266 64.8599 310.877C67.2235 309.994 69.6179 309.231 72.0297 308.481C72.4565 308.348 72.8833 308.215 73.3231 308.078C74.4831 307.716 75.6435 307.355 76.8039 306.994C77.5308 306.768 78.2575 306.542 78.9843 306.316C88.0986 303.479 97.2257 300.681 106.362 297.911C108.205 297.352 110.045 296.787 111.883 296.213C112.242 296.102 112.6 295.99 112.97 295.875C113.647 295.664 114.323 295.452 114.999 295.238C115.298 295.145 115.597 295.052 115.905 294.956C116.166 294.874 116.427 294.792 116.696 294.707C117.382 294.533 117.382 294.533 118.44 294.533C119.36 295.467 120.057 296.569 120.797 297.64C121.011 297.924 121.225 298.209 121.445 298.503C122.592 300.16 123.15 301.427 123.106 303.435C123.093 304.067 123.093 304.067 123.079 304.711C122.979 307.383 122.818 310.051 122.648 312.719C122.607 313.375 122.566 314.031 122.526 314.687C122.392 316.836 122.254 318.986 122.116 321.135C122.068 321.887 122.02 322.64 121.972 323.392C121.637 328.628 121.294 333.863 120.947 339.098C120.891 339.933 120.836 340.767 120.781 341.601C119.209 365.326 117.433 388.885 113.678 412.394C113.126 415.852 112.645 419.318 112.179 422.788C112.144 423.049 112.109 423.309 112.073 423.578C111.941 424.565 111.809 425.551 111.678 426.538C111.415 428.515 111.143 430.49 110.867 432.466C110.656 433.983 110.461 435.502 110.275 437.022C110.116 438.298 109.931 439.543 109.641 440.797C108.823 445.265 111.643 448.811 113.93 452.518C114.746 453.845 115.514 455.193 116.281 456.547C116.56 457.031 116.839 457.514 117.119 457.998C118.367 460.156 119.604 462.32 120.841 464.485C120.963 464.697 121.084 464.909 121.209 465.128C122.85 467.998 124.474 470.877 126.085 473.763C127.544 476.378 129.035 478.972 130.557 481.552C132.523 484.886 134.408 488.258 136.273 491.645C137.721 494.27 139.193 496.879 140.721 499.462C141.705 501.144 141.705 501.144 141.705 501.897C142.659 501.075 143.19 500.204 143.784 499.115C143.98 498.759 144.175 498.403 144.377 498.037C144.586 497.653 144.794 497.27 145.01 496.875C145.456 496.063 145.904 495.252 146.352 494.441C146.465 494.236 146.579 494.031 146.695 493.819C147.753 491.911 148.854 490.028 149.967 488.149C151.788 485.065 153.535 481.946 155.261 478.811C156.932 475.778 158.654 472.779 160.418 469.796C162.04 467.04 163.588 464.249 165.129 461.45C166.682 458.631 168.271 455.834 169.905 453.057C170.093 452.735 170.282 452.413 170.476 452.081C171.256 450.75 172.039 449.423 172.853 448.111C173.08 447.735 173.306 447.358 173.54 446.97C173.728 446.669 173.915 446.369 174.109 446.059C175.001 443.642 174.449 440.813 174.127 438.311C174.07 437.857 174.07 437.857 174.013 437.393C173.934 436.757 173.854 436.122 173.773 435.486C173.651 434.526 173.532 433.565 173.413 432.604C173.336 431.981 173.258 431.358 173.179 430.735C173.144 430.454 173.109 430.173 173.074 429.884C172.885 428.409 172.661 426.947 172.394 425.483C171.933 422.859 171.635 420.219 171.322 417.576C170.753 412.79 170.144 408.012 169.441 403.242C167.407 389.434 165.903 375.659 164.97 361.739C164.946 361.379 164.922 361.018 164.897 360.647C164.572 355.77 164.27 350.892 163.978 346.013C163.816 343.323 163.654 340.633 163.491 337.943C163.402 336.478 163.314 335.012 163.227 333.546C162.908 328.201 162.517 322.863 162.084 317.526C162.006 316.557 161.929 315.589 161.852 314.621C161.8 313.979 161.745 313.337 161.689 312.695C161.605 311.65 161.544 310.606 161.493 309.559C161.459 309.04 161.41 308.522 161.353 308.004C160.687 301.987 162.652 298.602 166.248 293.809C166.7 293.18 167.151 292.55 167.6 291.919C168.715 290.36 169.85 288.815 170.992 287.275C171.888 286.063 172.775 284.845 173.659 283.624C174.081 283.044 174.506 282.465 174.934 281.889C175.788 280.73 176.609 279.615 177.228 278.321C178.617 275.623 180.475 274.867 183.31 273.94C184.936 273.443 186.573 272.985 188.213 272.528C189.091 272.271 189.969 272.013 190.846 271.753C192.448 271.28 194.051 270.812 195.656 270.351C198.656 269.489 201.643 268.591 204.626 267.676C204.96 267.573 204.96 267.573 205.3 267.469C206.403 267.13 207.507 266.791 208.61 266.452C211.017 265.713 213.426 264.982 215.835 264.252C217.809 263.651 219.78 263.043 221.747 262.423C222.152 262.297 222.556 262.17 222.973 262.039C223.745 261.796 224.516 261.552 225.287 261.306C225.632 261.198 225.976 261.09 226.331 260.978C226.633 260.882 226.936 260.786 227.247 260.687C228.067 260.483 228.067 260.483 229.477 260.483Z" fill="#F93B3B"/>
<path d="M346.227 23.4729C354.08 23.265 361.695 23.3246 369.42 24.8565C369.731 24.9148 370.043 24.9731 370.364 25.0332C378.64 26.6097 386.904 29.401 394.448 33.0285C394.701 33.1489 394.954 33.2694 395.215 33.3936C401.017 36.1776 406.528 39.48 411.515 43.4797C412.04 43.8988 412.575 44.3077 413.109 44.7159C418.607 49.0151 424.07 54.0976 428.19 59.6649C428.7 60.3484 429.224 61.0197 429.75 61.6916C433.774 66.8876 437.052 72.4544 439.92 78.315C440.222 78.922 440.222 78.922 440.53 79.5413C451.09 101.399 452.113 128.584 443.757 151.225C442.129 155.55 440.402 159.794 438.143 163.85C437.796 164.478 437.461 165.111 437.128 165.746C434.662 170.399 431.612 174.643 428.288 178.762C428.047 179.061 427.806 179.36 427.558 179.668C424.094 183.86 420.208 188.128 415.862 191.489C414.406 192.618 414.406 192.618 412.972 193.772C407.509 198.238 401.537 201.879 395.153 204.981C394.694 205.205 394.694 205.205 394.226 205.433C379.283 212.604 363.089 215.25 346.508 214.855C346.216 214.849 345.924 214.842 345.623 214.835C341.968 214.737 338.451 214.32 334.868 213.626C334.223 213.504 333.576 213.393 332.929 213.283C313.741 209.913 296.673 200.563 282.705 187.615C282.39 187.325 282.074 187.034 281.75 186.735C279.662 184.768 277.819 182.67 276.008 180.465C275.789 180.212 275.57 179.959 275.344 179.699C266.829 169.787 260.979 158.07 257.325 145.734C257.244 145.488 257.163 145.243 257.08 144.99C256.39 142.873 255.925 140.774 255.563 138.583C255.504 138.231 255.445 137.878 255.385 137.515C255.203 136.397 255.028 135.277 254.858 134.157C254.803 133.798 254.748 133.439 254.692 133.07C252.603 118.91 253.983 104.468 258.735 90.9135C258.838 90.6144 258.942 90.3154 259.048 90.0073C260.631 85.4943 262.6 81.1926 264.75 76.9104C264.867 76.6759 264.985 76.4413 265.105 76.1997C271.346 63.7885 280.142 52.0812 291.518 43.584C291.719 43.4314 291.921 43.2788 292.128 43.1216C307.536 31.4865 326.568 24.017 346.227 23.4729Z" fill="#FEFEFE"/>
<path d="M148.248 116.387C148.514 116.387 148.78 116.388 149.054 116.388C152.99 116.396 156.854 116.483 160.74 117.132C161.098 117.19 161.098 117.19 161.463 117.249C168.589 118.441 175.561 120.93 181.89 124.282C182.217 124.441 182.544 124.599 182.881 124.763C198.407 132.417 209.983 147.32 215.377 163.099C215.78 164.44 216.135 165.788 216.479 167.143C216.568 167.479 216.656 167.814 216.747 168.16C217.968 172.909 218.364 177.486 218.374 182.359C218.375 182.669 218.376 182.978 218.377 183.297C218.382 204.426 210.38 224.82 195.087 239.989C193.37 241.602 191.525 243.047 189.645 244.479C189.11 244.896 189.11 244.896 188.565 245.321C180.31 251.689 170.413 255.773 160.189 258.142C159.956 258.196 159.724 258.25 159.484 258.305C158.73 258.474 157.973 258.628 157.215 258.78C156.934 258.842 156.653 258.904 156.364 258.968C152.993 259.626 149.603 259.564 146.179 259.55C145.126 259.546 144.073 259.55 143.019 259.554C139.228 259.557 135.577 259.42 131.835 258.78C131.502 258.723 131.17 258.667 130.828 258.608C119.325 256.493 108.431 251.697 99.4049 244.479C99.2013 244.317 98.9978 244.155 98.7882 243.988C94.7136 240.726 91.039 237.28 87.7724 233.242C87.3927 232.782 87.3927 232.782 87.0054 232.313C78.0736 221.202 71.9095 206.554 71.8383 192.376C71.8362 192.056 71.8342 191.737 71.8322 191.407C71.8289 190.733 71.8265 190.058 71.8252 189.384C71.8218 188.376 71.8108 187.368 71.7997 186.361C71.7671 180.753 72.3151 175.292 73.9367 169.888C74.027 169.58 74.1172 169.271 74.2102 168.954C75.6862 164.028 77.5574 159.358 80.0497 154.83C80.3336 154.313 80.6085 153.79 80.8821 153.268C83.8961 147.645 88.0863 142.649 92.5674 138.066C93.034 137.588 93.4966 137.107 93.959 136.626C98.2039 132.345 103.27 128.938 108.57 125.985C108.821 125.844 109.073 125.703 109.332 125.558C118.428 120.534 128.169 117.886 138.532 116.791C138.825 116.759 139.117 116.726 139.419 116.692C142.358 116.393 145.296 116.383 148.248 116.387Z" fill="#F93B3B"/>
<path d="M568.472 119.047C568.793 119.049 569.114 119.05 569.444 119.051C574.622 119.077 579.689 119.317 584.797 120.197C585.082 120.244 585.366 120.291 585.659 120.34C596.377 122.193 607.284 126.957 615.817 133.476C616.129 133.713 616.442 133.949 616.763 134.193C630.655 144.947 640.22 159.792 643.665 176.72C643.756 177.125 643.846 177.531 643.94 177.949C644.814 182.047 644.919 186.08 644.899 190.254C644.898 190.606 644.897 190.958 644.896 191.321C644.793 211.421 636.46 229.119 621.824 243.229C611.835 252.64 599.284 258.066 585.855 261.163C585.58 261.23 585.305 261.296 585.022 261.365C567.965 265.375 548.503 260.353 533.839 251.797C531.545 250.419 529.43 248.851 527.34 247.203C527.154 247.058 526.968 246.914 526.776 246.764C511.237 234.642 501.701 216.961 499.492 197.831C499.306 195.294 499.302 192.759 499.328 190.218C499.338 189.125 499.335 188.033 499.33 186.94C499.337 180.58 499.741 174.096 501.651 167.973C501.756 167.625 501.861 167.276 501.969 166.918C504.753 158.015 509.397 149.694 515.707 142.67C515.956 142.391 516.205 142.113 516.462 141.826C517.254 140.959 518.062 140.109 518.88 139.265C519.34 138.787 519.34 138.787 519.809 138.299C528.003 129.982 538.911 124.364 550.252 121.218C550.549 121.128 550.846 121.037 551.151 120.944C556.784 119.302 562.628 118.997 568.472 119.047Z" fill="#50F1CF"/>
<path d="M315.488 231.88C339.218 231.88 362.948 231.88 387.398 231.88C387.165 232.33 386.932 232.779 386.693 233.242C387.042 233.411 387.042 233.411 387.398 233.583C386.949 234.489 386.461 235.31 385.86 236.129C385.612 236.467 385.612 236.467 385.36 236.811C385.092 237.173 385.092 237.173 384.82 237.541C384.633 237.795 384.446 238.05 384.254 238.311C382.712 240.406 381.154 242.488 379.593 244.57C378.129 246.524 376.686 248.491 375.25 250.465C373.714 252.574 372.149 254.663 370.575 256.746C370.393 256.987 370.212 257.228 370.025 257.477C369.865 257.688 369.706 257.899 369.541 258.116C369.385 258.335 369.229 258.554 369.068 258.78C368.789 259.133 368.789 259.133 368.505 259.493C367.845 260.812 367.959 261.934 368.084 263.352C368.105 263.636 368.125 263.919 368.146 264.211C368.213 265.125 368.288 266.039 368.363 266.952C368.406 267.543 368.449 268.135 368.492 268.726C368.632 270.65 368.784 272.573 368.936 274.496C368.993 275.228 369.051 275.961 369.108 276.693C369.262 278.663 369.418 280.633 369.574 282.603C369.671 283.839 369.769 285.074 369.866 286.31C370.207 290.636 370.549 294.962 370.891 299.287C371.209 303.296 371.524 307.306 371.839 311.315C372.11 314.777 372.383 318.239 372.658 321.701C372.821 323.76 372.983 325.819 373.144 327.878C373.296 329.817 373.449 331.755 373.604 333.694C373.66 334.398 373.716 335.103 373.77 335.807C374.245 341.936 374.967 348.024 375.941 354.099C376.336 356.57 376.661 359.042 376.955 361.526C377.379 365.096 377.935 368.639 378.525 372.185C379.095 375.618 379.581 379.053 379.984 382.508C380.241 384.678 380.566 386.826 380.942 388.979C381.863 394.309 381.863 394.309 381.206 396.248C380.998 397.297 381.192 398.194 381.344 399.25C381.565 401.985 380.77 403.448 379.202 405.663C378.71 406.404 378.219 407.146 377.729 407.888C377.599 408.081 377.469 408.275 377.335 408.473C375.898 410.607 374.568 412.799 373.235 414.993C372.528 416.155 371.816 417.314 371.103 418.473C370.962 418.702 370.821 418.931 370.676 419.166C369.247 421.486 367.792 423.79 366.336 426.093C364.217 429.445 362.163 432.829 360.145 436.239C358.198 439.517 356.175 442.747 354.133 445.971C352.974 447.801 351.823 449.631 350.738 451.503C350.505 451.503 350.272 451.503 350.033 451.503C349.638 450.988 349.638 450.988 349.197 450.247C349.027 449.966 348.857 449.684 348.682 449.394C348.495 449.079 348.308 448.763 348.116 448.438C347.7 447.748 347.283 447.057 346.867 446.366C346.64 445.988 346.413 445.611 346.179 445.221C345.004 443.269 343.81 441.327 342.616 439.385C342.33 438.92 342.045 438.456 341.759 437.991C339.751 434.721 337.719 431.466 335.668 428.221C333.533 424.843 331.461 421.434 329.425 418C327.87 415.382 326.283 412.784 324.675 410.196C324.454 409.839 324.234 409.482 324.007 409.114C323.109 407.666 322.213 406.229 321.214 404.844C320.953 404.475 320.692 404.106 320.423 403.727C320.204 403.44 319.986 403.153 319.762 402.858C319.121 401.134 319.478 399.493 319.718 397.704C319.752 397.402 319.786 397.1 319.822 396.789C319.925 395.88 320.04 394.973 320.158 394.065C320.202 393.723 320.247 393.38 320.292 393.027C320.729 389.737 321.249 386.46 321.773 383.182C322.302 379.873 322.777 376.564 323.186 373.239C323.511 370.641 323.919 368.058 324.339 365.473C325.79 356.51 326.763 347.514 327.428 338.465C327.669 335.207 327.949 331.953 328.251 328.7C328.842 322.33 329.368 315.957 329.872 309.581C329.941 308.711 330.01 307.841 330.08 306.971C330.663 299.633 331.22 292.296 331.711 284.952C331.989 280.78 332.298 276.611 332.628 272.443C332.65 272.16 332.672 271.877 332.695 271.586C332.757 270.794 332.82 270.002 332.884 269.21C332.92 268.764 332.955 268.318 332.992 267.858C333.11 266.64 333.281 265.438 333.465 264.228C333.75 262.052 333.44 260.787 332.069 259.027C331.868 258.784 331.667 258.541 331.46 258.291C331.036 257.752 330.613 257.213 330.189 256.674C329.971 256.402 329.754 256.13 329.529 255.85C328.52 254.577 327.557 253.273 326.591 251.97C326.21 251.46 325.829 250.949 325.447 250.439C325.258 250.186 325.069 249.934 324.874 249.673C324.298 248.902 323.72 248.132 323.142 247.361C321.056 244.579 318.984 241.788 316.944 238.974C315.921 237.565 314.864 236.189 313.766 234.832C313.373 234.264 313.373 234.264 313.373 233.583C314.303 233.471 315.234 233.358 316.193 233.242C315.96 232.793 315.727 232.344 315.488 231.88Z" fill="#5352E8"/>
<path d="M346.227 23.4729C354.08 23.265 361.695 23.3246 369.42 24.8565C369.731 24.9148 370.043 24.9731 370.364 25.0332C378.64 26.6097 386.904 29.401 394.448 33.0285C394.701 33.1489 394.954 33.2694 395.215 33.3936C401.017 36.1776 406.528 39.48 411.515 43.4797C412.04 43.8988 412.575 44.3077 413.109 44.7159C418.607 49.0151 424.07 54.0976 428.19 59.6649C428.7 60.3484 429.224 61.0197 429.75 61.6916C433.774 66.8876 437.052 72.4544 439.92 78.315C440.222 78.922 440.222 78.922 440.53 79.5413C451.09 101.399 452.113 128.584 443.757 151.225C442.129 155.55 440.402 159.794 438.143 163.85C437.796 164.478 437.461 165.111 437.128 165.746C434.662 170.399 431.612 174.643 428.288 178.762C428.047 179.061 427.806 179.36 427.558 179.668C424.094 183.86 420.208 188.128 415.862 191.489C414.406 192.618 414.406 192.618 412.972 193.772C407.509 198.238 401.537 201.879 395.153 204.981C394.694 205.205 394.694 205.205 394.226 205.433C379.283 212.604 363.089 215.25 346.508 214.855C346.216 214.849 345.924 214.842 345.623 214.835C341.968 214.737 338.451 214.32 334.868 213.626C334.223 213.504 333.576 213.393 332.929 213.283C313.741 209.913 296.673 200.563 282.705 187.615C282.39 187.325 282.074 187.034 281.75 186.735C279.662 184.768 277.819 182.67 276.008 180.465C275.789 180.212 275.57 179.959 275.344 179.699C266.829 169.787 260.979 158.07 257.325 145.734C257.244 145.488 257.163 145.243 257.08 144.99C256.39 142.873 255.925 140.774 255.563 138.583C255.504 138.231 255.445 137.878 255.385 137.515C255.203 136.397 255.028 135.277 254.858 134.157C254.803 133.798 254.748 133.439 254.692 133.07C252.603 118.91 253.983 104.468 258.735 90.9135C258.838 90.6144 258.942 90.3154 259.048 90.0073C260.631 85.4943 262.6 81.1926 264.75 76.9104C264.867 76.6759 264.985 76.4413 265.105 76.1997C271.346 63.7885 280.142 52.0812 291.518 43.584C291.719 43.4314 291.921 43.2788 292.128 43.1216C307.536 31.4865 326.568 24.017 346.227 23.4729ZM333.818 38.817C333.477 38.8899 333.135 38.9629 332.784 39.0381C318.261 42.2152 304.283 48.81 293.452 58.7801C292.71 59.4635 291.953 60.103 291.165 60.7366C279.646 70.4646 272.144 84.5932 268.914 98.8514C268.858 99.093 268.802 99.3346 268.744 99.5836C267.616 104.777 267.392 109.991 267.393 115.28C267.393 115.614 267.393 115.947 267.393 116.291C267.411 125.291 268.75 133.783 271.778 142.329C271.884 142.633 271.991 142.936 272.101 143.249C276.121 154.484 282.586 164.786 291.165 173.314C291.387 173.537 291.609 173.761 291.837 173.99C294.866 177.027 297.925 179.909 301.455 182.399C301.893 182.708 302.329 183.02 302.763 183.336C316.518 193.327 333.56 198.987 350.738 199.533C351.172 199.547 351.606 199.561 352.054 199.576C355.916 199.636 359.731 199.318 363.57 198.941C364.332 198.867 365.094 198.802 365.857 198.739C385.642 196.754 405.398 185.427 417.977 170.739C418.479 170.124 418.978 169.507 419.475 168.888C419.885 168.405 419.885 168.405 420.303 167.912C425.719 161.394 429.497 153.884 432.58 146.122C432.814 145.535 433.055 144.951 433.298 144.368C438.388 131.791 438.924 116.635 436.043 103.512C435.979 103.213 435.914 102.914 435.848 102.606C432.643 88.0692 425.143 74.14 414.354 63.5037C413.979 63.1344 413.607 62.7627 413.237 62.3894C410.226 59.3557 407.117 56.6289 403.613 54.1395C403.411 53.9943 403.21 53.8492 403.003 53.6997C396.559 49.06 389.538 45.501 382.11 42.5625C381.68 42.3913 381.25 42.2201 380.808 42.0437C377.509 40.7989 374.099 40.0052 370.654 39.2426C369.983 39.0925 369.983 39.0925 369.298 38.9393C363.295 37.6553 357.428 37.3152 351.288 37.3273C350.932 37.3275 350.575 37.3276 350.207 37.3278C344.624 37.3411 339.28 37.6094 333.818 38.817Z" fill="#5352E8"/>
<path d="M64.8599 315.303C64.8599 422.499 64.8599 529.695 64.8599 640.14C119.184 640.14 173.507 640.14 229.477 640.14C229.477 645.534 229.477 650.927 229.477 656.484C170.966 656.484 112.454 656.484 52.1699 656.484C52.1699 545.018 52.1699 433.552 52.1699 318.708C54.3801 318.034 56.5903 317.36 58.8674 316.665C60.7066 316.098 60.7066 316.098 62.5453 315.529C63.4499 315.303 63.4499 315.303 64.8599 315.303Z" fill="#010000"/>
<path d="M644.723 309.515C647.449 310.1 650.145 310.816 652.83 311.558C652.83 425.383 652.83 539.209 652.83 656.484C593.621 656.484 534.411 656.484 473.408 656.484C473.408 650.529 473.408 644.573 473.408 638.438C529.942 638.438 586.476 638.438 644.723 638.438C644.723 529.893 644.723 421.348 644.723 309.515Z" fill="#010202"/>
<path d="M248.513 638.438C315.632 638.438 382.752 638.438 451.905 638.438C451.905 644.393 451.905 650.348 451.905 656.484C384.786 656.484 317.666 656.484 248.513 656.484C248.513 650.529 248.513 644.573 248.513 638.438Z" fill="#000001"/>
<path d="M132.187 118.153C131.21 118.783 130.517 119.06 129.411 119.389C111.284 124.915 96.8137 136.323 87.7724 152.544C85.4137 156.936 83.6166 161.455 82.2645 166.228C82.1961 166.464 82.1276 166.7 82.0571 166.943C80.6717 172.044 80.2006 177.134 80.2514 182.393C80.2598 183.323 80.2586 184.253 80.2563 185.183C80.2616 188.438 80.416 191.562 81.0749 194.766C81.1225 195.024 81.1702 195.281 81.2194 195.547C83.9983 210.204 92.1201 224.909 104.34 234.264C104.83 234.648 104.83 234.648 105.33 235.041C120.734 246.942 139.184 251.172 158.637 249.479C160.908 249.219 163.116 248.799 165.322 248.224C165.574 248.161 165.825 248.097 166.084 248.031C167.495 247.662 168.877 247.237 170.255 246.764C171.012 246.505 171.774 246.26 172.536 246.015C181.094 243.194 188.555 238.681 195.285 232.902C195.634 232.606 195.984 232.31 196.344 232.006C205.183 224.408 211.551 214.001 214.982 203.115C215.287 202.192 215.594 201.395 216.082 200.554C215.349 215.618 204.786 231.455 193.522 241.414C192.257 242.47 190.958 243.479 189.645 244.479C189.111 244.896 189.111 244.896 188.565 245.321C180.31 251.689 170.413 255.773 160.189 258.142C159.956 258.196 159.724 258.25 159.484 258.305C158.73 258.474 157.973 258.628 157.215 258.78C156.934 258.842 156.653 258.904 156.364 258.968C152.993 259.626 149.603 259.564 146.179 259.55C145.126 259.546 144.073 259.55 143.019 259.554C139.228 259.557 135.577 259.42 131.835 258.78C131.503 258.723 131.17 258.667 130.828 258.608C119.325 256.493 108.431 251.697 99.4049 244.479C99.2013 244.317 98.9978 244.155 98.7882 243.988C94.7136 240.726 91.039 237.28 87.7724 233.242C87.3927 232.782 87.3927 232.782 87.0054 232.313C78.0736 221.202 71.9095 206.554 71.8383 192.376C71.8362 192.056 71.8342 191.737 71.8322 191.407C71.8289 190.733 71.8265 190.058 71.8252 189.384C71.8218 188.376 71.8108 187.368 71.7997 186.361C71.7671 180.753 72.3151 175.292 73.9367 169.888C74.027 169.58 74.1172 169.271 74.2102 168.954C75.6862 164.028 77.5574 159.358 80.0497 154.83C80.3336 154.313 80.6085 153.79 80.8821 153.268C83.8961 147.645 88.0863 142.649 92.5674 138.066C93.034 137.588 93.4966 137.107 93.959 136.626C98.2039 132.345 103.27 128.938 108.57 125.985C108.821 125.844 109.073 125.703 109.332 125.558C115.963 121.895 124.38 117.93 132.187 118.153Z" fill="#030101"/>
<path d="M580.215 119.856C592.77 120.285 606.058 126.021 615.817 133.476C616.13 133.713 616.442 133.949 616.763 134.193C630.655 144.947 640.22 159.792 643.665 176.72C643.756 177.125 643.846 177.531 643.94 177.949C644.814 182.047 644.92 186.08 644.899 190.254C644.898 190.606 644.897 190.958 644.896 191.321C644.793 211.421 636.46 229.119 621.825 243.229C611.835 252.64 599.284 258.066 585.855 261.164C585.58 261.23 585.305 261.296 585.022 261.365C567.965 265.375 548.503 260.353 533.839 251.797C531.545 250.419 529.431 248.851 527.34 247.203C527.154 247.058 526.968 246.914 526.776 246.764C511.285 234.679 501.605 216.94 499.492 197.831C499.374 196.01 499.391 194.204 499.492 192.383C499.609 192.383 499.725 192.383 499.845 192.383C499.901 192.799 499.957 193.216 500.014 193.645C501.243 202.39 503.978 210.481 508.305 218.261C508.517 218.654 508.729 219.047 508.948 219.452C511.84 224.605 515.74 229.043 519.937 233.243C520.148 233.464 520.359 233.685 520.576 233.913C531.038 244.625 548.175 251.909 563.353 252.37C564.614 252.393 565.873 252.391 567.133 252.381C567.9 252.374 568.667 252.374 569.434 252.374C587.417 252.332 603.926 245.544 616.875 233.583C617.202 233.285 617.528 232.988 617.865 232.681C625.624 225.431 631.24 215.899 634.5 206.003C634.584 205.752 634.668 205.502 634.754 205.244C635.338 203.471 635.834 201.688 636.262 199.874C636.321 199.628 636.379 199.382 636.439 199.129C637.416 194.723 637.421 190.271 637.43 185.785C637.431 185.493 637.433 185.202 637.434 184.901C637.476 166.866 629.684 150.783 616.875 137.903C615.973 137.058 615.028 136.286 614.055 135.519C613.875 135.373 613.695 135.227 613.509 135.076C610.225 132.417 606.831 130.108 603.127 128.028C602.915 127.907 602.703 127.786 602.484 127.661C595.605 123.778 587.992 121.671 580.215 120.197C580.215 120.084 580.215 119.972 580.215 119.856Z" fill="#020303"/>
<path d="M352.236 52.0114C352.485 52.0109 352.734 52.0105 352.99 52.01C356.983 52.0116 360.854 52.265 364.783 52.9814C365.48 53.1068 366.181 53.2131 366.882 53.3175C371.879 54.1299 376.784 55.9013 381.405 57.885C381.405 57.9974 381.405 58.1097 381.405 58.2255C381.016 58.2009 380.626 58.1764 380.225 58.151C358.044 56.8379 337.359 61.2666 319.718 74.91C319.519 75.0621 319.321 75.2142 319.117 75.3709C306.193 85.3612 296.568 99.6481 292.223 115.089C292.045 115.703 292.045 115.703 291.863 116.33C288.685 127.675 288.113 140.505 291.052 151.942C291.373 153.192 291.596 154.318 291.518 155.609C288.467 151.989 286.781 147.016 285.173 142.67C285.089 142.443 285.004 142.217 284.918 141.984C282.862 136.34 281.609 130.242 281.576 124.255C281.574 123.964 281.572 123.673 281.57 123.374C281.567 122.76 281.564 122.146 281.563 121.532C281.559 120.616 281.549 119.701 281.537 118.785C281.503 113.425 282.161 108.268 283.696 103.108C283.788 102.795 283.879 102.482 283.973 102.16C287.459 90.4564 293.859 80.0984 302.798 71.505C303.055 71.2554 303.055 71.2554 303.317 71.0008C314.244 60.5038 328.621 54.5699 343.688 52.437C343.938 52.4009 344.188 52.3648 344.446 52.3276C347.03 52.0011 349.633 52.0142 352.236 52.0114Z" fill="#5453E9"/>
<path d="M261.555 83.763C261.979 84.9909 261.808 85.2223 261.314 86.3872C256.114 99.5382 255.241 114.864 257.325 128.709C257.361 128.961 257.397 129.214 257.434 129.474C257.694 131.273 258.019 133.056 258.382 134.838C258.434 135.101 258.486 135.363 258.54 135.634C262.73 156.22 275.889 177.023 293.28 189.659C293.672 189.96 294.064 190.263 294.456 190.566C305.24 198.784 317.979 204.336 331.262 207.492C331.494 207.548 331.725 207.604 331.964 207.661C338.564 209.23 345.069 209.921 351.866 209.881C352.958 209.876 354.05 209.881 355.143 209.888C361.685 209.895 368.223 209.334 374.597 207.854C375.155 207.726 375.155 207.726 375.725 207.596C388.413 204.558 400.199 199.244 410.662 191.701C410.882 191.543 411.101 191.385 411.327 191.223C414.455 188.951 417.361 186.489 420.18 183.87C420.44 183.63 420.44 183.63 420.705 183.386C423.076 181.188 425.207 178.878 427.23 176.379C427.512 176.036 427.795 175.693 428.086 175.339C431.667 170.955 434.723 166.316 437.452 161.397C437.569 161.19 437.686 160.983 437.807 160.769C444.137 149.505 447.587 136.703 448.38 123.942C448.496 123.942 448.613 123.942 448.732 123.942C449.839 143.333 440.399 163.754 428.287 178.762C428.047 179.061 427.806 179.36 427.558 179.668C424.094 183.86 420.207 188.128 415.862 191.489C414.406 192.618 414.406 192.618 412.972 193.772C407.509 198.238 401.536 201.879 395.152 204.981C394.846 205.13 394.541 205.279 394.225 205.433C379.283 212.604 363.089 215.25 346.507 214.855C346.215 214.849 345.923 214.842 345.622 214.836C341.968 214.737 338.451 214.32 334.867 213.626C334.223 213.504 333.576 213.393 332.929 213.283C313.741 209.913 296.672 200.563 282.705 187.616C282.39 187.325 282.074 187.034 281.749 186.735C279.662 184.768 277.819 182.67 276.007 180.465C275.788 180.212 275.569 179.959 275.344 179.699C266.829 169.787 260.978 158.07 257.325 145.734C257.244 145.489 257.163 145.243 257.079 144.99C256.39 142.873 255.925 140.774 255.562 138.583C255.504 138.231 255.445 137.878 255.384 137.515C255.203 136.397 255.028 135.277 254.857 134.157C254.775 133.619 254.775 133.619 254.691 133.07C252.181 116.052 255.038 99.6228 261.555 83.763Z" fill="#040405"/>
<path d="M313.373 233.583C316.041 233.227 316.041 233.227 317.135 234.001C317.677 234.623 318.137 235.262 318.594 235.945C318.859 236.313 318.859 236.313 319.13 236.689C319.501 237.206 319.868 237.726 320.231 238.249C320.918 239.236 321.631 240.204 322.346 241.173C322.875 241.893 323.4 242.615 323.924 243.338C325.033 244.864 326.163 246.375 327.296 247.884C328.843 249.947 330.379 252.017 331.901 254.098C332.073 254.333 332.245 254.569 332.423 254.811C332.585 255.034 332.748 255.257 332.916 255.487C333.056 255.68 333.197 255.872 333.342 256.071C333.499 256.291 333.656 256.511 333.818 256.737C334.061 257.018 334.305 257.299 334.556 257.588C335.465 259.202 335.328 260.382 335.176 262.175C335.143 262.67 335.143 262.67 335.109 263.174C335.038 264.207 334.957 265.239 334.875 266.271C334.831 266.893 334.787 267.514 334.743 268.136C334.606 270.063 334.452 271.989 334.296 273.916C334.238 274.647 334.18 275.377 334.122 276.108C333.967 278.069 333.81 280.03 333.652 281.99C333.487 284.057 333.323 286.124 333.158 288.19C332.882 291.658 332.605 295.126 332.327 298.594C332.007 302.585 331.689 306.576 331.371 310.568C331.064 314.431 330.756 318.295 330.447 322.158C330.316 323.791 330.186 325.425 330.056 327.058C329.903 328.987 329.748 330.915 329.593 332.843C329.537 333.544 329.481 334.246 329.426 334.947C329.148 338.433 328.855 341.917 328.516 345.398C328.475 345.83 328.475 345.83 328.432 346.272C328.172 348.891 327.774 351.48 327.34 354.077C327.182 355.052 327.025 356.026 326.869 357.001C326.831 357.244 326.792 357.488 326.752 357.738C326.36 360.216 326.031 362.699 325.71 365.186C325.238 368.828 324.705 372.456 324.124 376.082C323.555 379.644 323.009 383.207 322.521 386.78C322.43 387.446 322.337 388.11 322.244 388.775C322.089 389.934 321.955 391.093 321.833 392.256C321.793 392.556 321.753 392.856 321.712 393.164C321.5 395.825 322.791 397.607 324.234 399.79C324.489 400.188 324.743 400.586 324.996 400.985C325.536 401.835 326.079 402.682 326.625 403.528C327.923 405.55 329.168 407.602 330.419 409.651C331.128 410.81 331.84 411.968 332.552 413.125C332.69 413.35 332.829 413.574 332.971 413.806C334.455 416.216 335.95 418.62 337.447 421.023C338.671 422.991 339.889 424.962 341.1 426.936C341.242 427.167 341.383 427.398 341.529 427.636C342.105 428.574 342.681 429.513 343.256 430.452C344.716 432.833 346.18 435.21 347.678 437.569C347.909 437.934 348.141 438.299 348.379 438.674C348.81 439.35 349.242 440.026 349.676 440.7C349.864 440.995 350.052 441.29 350.246 441.594C350.41 441.849 350.574 442.104 350.743 442.367C351.09 442.991 351.09 442.991 351.09 443.672C351.323 443.672 351.555 443.672 351.795 443.672C351.888 443.431 351.981 443.19 352.076 442.942C352.525 441.912 353.057 440.988 353.644 440.026C353.878 439.642 354.112 439.258 354.352 438.862C354.609 438.443 354.865 438.025 355.122 437.606C355.389 437.169 355.655 436.732 355.922 436.294C356.777 434.893 357.635 433.494 358.493 432.095C358.783 431.621 359.072 431.148 359.362 430.675C362.156 426.115 364.958 421.561 367.786 417.021C369.605 414.098 371.404 411.162 373.206 408.229C375.574 404.373 377.953 400.523 380.348 396.683C380.58 396.795 380.813 396.907 381.053 397.023C381.615 399.389 381.741 401.57 380.518 403.735C380.091 404.385 379.652 405.028 379.202 405.663C378.71 406.404 378.219 407.146 377.729 407.888C377.599 408.081 377.469 408.275 377.335 408.473C375.898 410.607 374.568 412.799 373.235 414.993C372.528 416.155 371.816 417.315 371.103 418.473C370.962 418.702 370.821 418.931 370.676 419.166C369.247 421.486 367.792 423.79 366.336 426.093C364.217 429.445 362.163 432.829 360.145 436.239C358.198 439.517 356.175 442.747 354.133 445.971C352.974 447.801 351.823 449.631 350.738 451.503C350.505 451.503 350.272 451.503 350.033 451.503C349.638 450.988 349.638 450.988 349.197 450.247C349.027 449.966 348.857 449.684 348.682 449.394C348.495 449.079 348.308 448.763 348.116 448.439C347.7 447.748 347.283 447.057 346.867 446.366C346.64 445.988 346.413 445.611 346.179 445.221C345.004 443.269 343.81 441.327 342.616 439.385C342.33 438.92 342.045 438.456 341.759 437.991C339.751 434.721 337.719 431.466 335.668 428.221C333.533 424.843 331.461 421.434 329.425 418C327.87 415.382 326.283 412.784 324.675 410.196C324.454 409.839 324.234 409.482 324.007 409.114C323.109 407.666 322.213 406.229 321.214 404.844C320.953 404.475 320.692 404.106 320.423 403.727C320.204 403.44 319.986 403.153 319.762 402.858C319.121 401.134 319.478 399.493 319.718 397.704C319.752 397.402 319.786 397.1 319.822 396.789C319.925 395.88 320.04 394.973 320.158 394.065C320.202 393.723 320.247 393.38 320.292 393.027C320.729 389.737 321.249 386.46 321.773 383.182C322.302 379.873 322.777 376.564 323.186 373.239C323.511 370.641 323.919 368.058 324.339 365.473C325.79 356.51 326.763 347.514 327.428 338.465C327.669 335.207 327.949 331.953 328.251 328.7C328.842 322.33 329.368 315.957 329.872 309.581C329.941 308.711 330.01 307.841 330.08 306.971C330.663 299.633 331.22 292.296 331.711 284.952C331.989 280.78 332.298 276.611 332.628 272.443C332.65 272.16 332.672 271.877 332.695 271.586C332.757 270.794 332.82 270.002 332.884 269.21C332.92 268.764 332.955 268.318 332.992 267.858C333.11 266.64 333.281 265.438 333.465 264.228C333.75 262.052 333.44 260.787 332.069 259.027C331.868 258.784 331.667 258.541 331.46 258.291C331.036 257.752 330.613 257.213 330.189 256.675C329.971 256.402 329.754 256.13 329.529 255.85C328.52 254.577 327.557 253.273 326.591 251.97C326.21 251.46 325.829 250.949 325.447 250.439C325.258 250.186 325.069 249.934 324.874 249.673C324.298 248.902 323.72 248.132 323.142 247.361C321.056 244.579 318.984 241.788 316.944 238.974C315.921 237.565 314.864 236.189 313.766 234.832C313.373 234.264 313.373 234.264 313.373 233.583Z" fill="#030305"/>
<path d="M402.907 50.7345C403.243 50.9755 403.243 50.9755 403.586 51.2214C410.077 55.9203 416.129 61.7444 420.787 68.1609C421.205 68.7363 421.636 69.3031 422.068 69.869C428.889 78.9894 436.765 92.9533 436.395 104.534C435.52 103.266 435.285 101.994 434.941 100.533C431.413 86.4135 424.013 73.3804 413.482 62.9925C413.095 62.6015 412.708 62.2105 412.322 61.8194C409.608 59.107 406.753 56.7184 403.612 54.48C403.411 54.3344 403.209 54.1888 403.001 54.0388C396.557 49.3999 389.537 45.8412 382.11 42.903C381.68 42.7319 381.25 42.5607 380.807 42.3843C377.509 41.1395 374.099 40.3458 370.654 39.5832C370.206 39.4831 369.759 39.383 369.298 39.2799C363.295 37.9959 357.428 37.6558 351.288 37.6679C350.931 37.668 350.574 37.6682 350.207 37.6684C344.624 37.6817 339.279 37.95 333.817 39.1575C333.476 39.2305 333.135 39.3035 332.784 39.3787C317.711 42.6761 303.774 49.6184 292.575 59.928C292.1 60.3209 291.623 60.7113 291.143 61.0985C286.008 65.4357 281.958 70.9684 278.429 76.5594C278.183 76.9478 278.183 76.9478 277.932 77.3441C277.719 77.6874 277.719 77.6874 277.5 78.0376C277.059 78.6638 276.579 79.1605 276.007 79.677C276.526 77.9462 277.307 76.5099 278.255 74.9739C278.408 74.7234 278.562 74.473 278.721 74.2149C282.349 68.3993 286.687 63.1473 291.517 58.2255C291.684 58.0547 291.851 57.8838 292.023 57.7078C294.699 54.9839 297.567 52.6362 300.682 50.394C300.878 50.2511 301.073 50.1081 301.274 49.9608C327.318 30.9313 361.782 29.6394 402.907 50.7345Z" fill="#060609"/>
<path d="M313.373 233.583C316.041 233.227 316.041 233.227 317.135 234.001C317.677 234.623 318.137 235.262 318.594 235.945C318.859 236.313 318.859 236.313 319.13 236.689C319.501 237.206 319.868 237.726 320.231 238.249C320.918 239.236 321.631 240.204 322.346 241.173C322.875 241.893 323.4 242.615 323.924 243.338C325.033 244.864 326.163 246.375 327.296 247.884C328.843 249.947 330.379 252.017 331.901 254.098C332.073 254.333 332.245 254.569 332.423 254.811C332.585 255.034 332.748 255.257 332.916 255.487C333.056 255.68 333.197 255.872 333.342 256.071C333.499 256.291 333.656 256.511 333.818 256.737C334.061 257.018 334.305 257.299 334.556 257.588C335.465 259.202 335.328 260.382 335.176 262.175C335.143 262.67 335.143 262.67 335.109 263.174C335.038 264.207 334.957 265.239 334.875 266.271C334.831 266.893 334.787 267.514 334.743 268.136C334.606 270.063 334.452 271.989 334.296 273.916C334.238 274.647 334.18 275.377 334.122 276.108C333.967 278.069 333.81 280.03 333.652 281.99C333.487 284.057 333.323 286.124 333.158 288.19C332.882 291.658 332.605 295.126 332.327 298.594C332.007 302.585 331.689 306.576 331.371 310.568C331.064 314.431 330.756 318.295 330.447 322.158C330.316 323.791 330.186 325.425 330.056 327.058C329.903 328.987 329.748 330.915 329.593 332.843C329.537 333.544 329.481 334.246 329.426 334.947C329.148 338.433 328.855 341.917 328.516 345.398C328.475 345.83 328.475 345.83 328.432 346.272C328.172 348.891 327.774 351.48 327.34 354.077C327.182 355.052 327.025 356.026 326.869 357.001C326.831 357.244 326.792 357.488 326.752 357.738C326.36 360.216 326.031 362.699 325.71 365.186C325.208 369.062 324.631 372.921 324.012 376.78C323.188 381.927 322.496 387.088 321.833 392.256C321.3 391.861 321.3 391.861 320.775 391.235C320.726 390.388 320.726 390.388 320.844 389.388C320.886 389.023 320.928 388.658 320.971 388.281C321.216 386.508 321.49 384.743 321.788 382.977C322.26 380.109 322.689 377.242 323.044 374.358C323.411 371.385 323.859 368.428 324.339 365.471C325.79 356.508 326.763 347.513 327.428 338.465C327.669 335.207 327.949 331.953 328.251 328.7C328.842 322.33 329.368 315.957 329.872 309.581C329.941 308.711 330.01 307.841 330.08 306.971C330.663 299.633 331.22 292.296 331.711 284.952C331.989 280.78 332.298 276.611 332.628 272.443C332.65 272.16 332.672 271.877 332.695 271.586C332.757 270.794 332.82 270.002 332.884 269.21C332.92 268.764 332.955 268.318 332.992 267.858C333.11 266.64 333.281 265.438 333.465 264.228C333.75 262.052 333.44 260.787 332.069 259.027C331.868 258.784 331.667 258.541 331.46 258.291C331.036 257.752 330.613 257.213 330.189 256.675C329.971 256.402 329.754 256.13 329.529 255.85C328.52 254.577 327.557 253.273 326.591 251.97C326.21 251.46 325.829 250.949 325.447 250.439C325.258 250.186 325.069 249.934 324.874 249.673C324.298 248.902 323.72 248.132 323.142 247.361C321.056 244.579 318.984 241.788 316.944 238.974C315.921 237.565 314.864 236.189 313.766 234.832C313.373 234.264 313.373 234.264 313.373 233.583Z" fill="#0A0A0D"/>
<path d="M327.12 349.353C327.236 349.353 327.352 349.353 327.472 349.353C327.54 351.802 327.346 354.145 326.995 356.569C326.945 356.926 326.895 357.284 326.843 357.653C326.681 358.809 326.515 359.966 326.349 361.122C326.235 361.925 326.122 362.728 326.008 363.531C325.331 368.306 324.614 373.074 323.847 377.837C323.08 382.631 322.45 387.442 321.832 392.256C321.299 391.861 321.299 391.861 320.775 391.235C320.725 390.388 320.725 390.388 320.844 389.388C320.886 389.023 320.928 388.658 320.971 388.281C321.216 386.508 321.49 384.743 321.788 382.977C322.26 380.109 322.689 377.242 323.044 374.358C323.479 370.836 324.026 367.333 324.592 363.829C325.19 360.118 325.688 356.409 326.066 352.67C326.103 352.331 326.139 351.992 326.177 351.642C326.206 351.346 326.235 351.05 326.266 350.746C326.415 350.034 326.415 350.034 327.12 349.353Z" fill="#141421"/>
<path d="M386.34 233.583C386.689 233.583 387.038 233.583 387.397 233.583C386.949 234.489 386.461 235.31 385.859 236.129C385.694 236.354 385.53 236.579 385.36 236.811C385.181 237.052 385.003 237.293 384.82 237.541C384.633 237.795 384.446 238.05 384.254 238.311C382.712 240.406 381.153 242.488 379.592 244.57C378.304 246.29 377.03 248.02 375.765 249.757C374.245 251.841 372.72 253.92 371.182 255.992C370.992 256.251 370.802 256.509 370.606 256.776C369.698 257.994 368.809 259.123 367.657 260.142C367.554 258.782 367.729 258.138 368.588 257.062C368.89 256.677 368.89 256.677 369.197 256.284C369.416 256.012 369.635 255.74 369.861 255.46C370.318 254.878 370.775 254.294 371.231 253.711C371.461 253.419 371.691 253.126 371.928 252.825C372.89 251.587 373.812 250.324 374.73 249.054C376.361 246.807 378.017 244.578 379.685 242.356C381.245 240.275 382.78 238.178 384.302 236.07C384.467 235.843 384.632 235.616 384.802 235.381C384.946 235.181 385.091 234.981 385.239 234.775C385.635 234.264 385.635 234.264 386.34 233.583Z" fill="#0E0E15"/>
<path d="M448.38 123.942C448.496 123.942 448.613 123.942 448.732 123.942C449.159 131.416 447.403 138.859 445.56 146.075C445.211 145.85 444.862 145.625 444.502 145.394C444.652 144.783 444.801 144.172 444.95 143.561C445.079 143.031 445.208 142.501 445.336 141.971C445.618 140.807 445.902 139.645 446.204 138.486C447.42 133.745 448.077 128.816 448.38 123.942Z" fill="#212133"/>
<path d="M284.115 67.419C284.231 67.6437 284.347 67.8685 284.467 68.1C284.236 68.3936 284.006 68.6873 283.768 68.9898C281.093 72.4327 278.695 76.0123 276.36 79.677C276.243 79.4523 276.127 79.2275 276.007 78.996C276.241 78.4263 276.241 78.4263 276.632 77.7444C276.776 77.4925 276.92 77.2406 277.069 76.981C277.227 76.7119 277.386 76.4428 277.55 76.1656C277.79 75.7544 277.79 75.7544 278.034 75.3349C281.871 68.8525 281.871 68.8525 284.115 67.419Z" fill="#17171F"/>
<path d="M432.87 92.616C433.219 92.7283 433.568 92.8407 433.928 92.9565C434.236 93.6924 434.236 93.6924 434.481 94.655C434.572 95.0011 434.662 95.3472 434.755 95.7037C434.846 96.0683 434.936 96.4328 435.029 96.8084C435.122 97.169 435.215 97.5295 435.311 97.901C435.559 98.8625 435.801 99.825 436.043 100.788C436.11 101.024 436.177 101.26 436.246 101.504C436.478 102.51 436.416 103.507 436.395 104.533C435.746 103.593 435.53 103.084 435.273 102.018C435.2 101.727 435.128 101.435 435.053 101.134C434.98 100.83 434.907 100.527 434.831 100.213C434.418 98.5065 434.01 96.8387 433.342 95.2056C432.87 93.978 432.87 93.978 432.87 92.616Z" fill="#191929"/>
<path d="M327.12 349.353C327.236 349.353 327.353 349.353 327.472 349.353C327.599 352.248 327.209 355.009 326.767 357.866C326.418 357.641 326.07 357.416 325.71 357.185C326.227 350.216 326.227 350.216 327.12 349.353Z" fill="#1B1B21"/>
<path d="M261.555 83.763C261.974 84.9778 261.83 85.1538 261.335 86.2955C260.164 89.2226 259.486 92.2927 258.735 95.34C258.386 95.1153 258.037 94.8905 257.678 94.659C258.553 90.8963 260.103 87.3442 261.555 83.763Z" fill="#25243A"/>
<path d="M444.855 145.053C444.972 145.053 445.088 145.053 445.208 145.053C445.004 147.556 444.252 149.825 443.445 152.203C443.096 152.091 442.747 151.979 442.388 151.863C443.487 146.374 443.487 146.374 444.855 145.053Z" fill="#0E0E19"/>
<path d="M580.215 119.856C583.981 119.985 587.492 120.708 591.143 121.559C590.085 122.24 590.085 122.24 589.434 122.205C589.176 122.146 588.919 122.087 588.653 122.027C588.348 121.96 588.043 121.893 587.729 121.825C587.15 121.693 587.15 121.693 586.56 121.559C586.013 121.441 585.465 121.324 584.917 121.207C583.349 120.874 581.782 120.536 580.215 120.197C580.215 120.084 580.215 119.972 580.215 119.856Z" fill="#314C46"/>
<path d="M323.243 376.253C323.359 376.253 323.475 376.253 323.595 376.253C323.685 378.816 323.342 381.22 322.89 383.744C322.541 383.744 322.192 383.744 321.833 383.744C321.999 382.559 322.169 381.374 322.339 380.19C322.41 379.682 322.41 379.682 322.483 379.165C322.53 378.843 322.576 378.522 322.624 378.19C322.667 377.893 322.709 377.595 322.753 377.288C322.89 376.593 322.89 376.593 323.243 376.253Z" fill="#050509"/>
<path d="M323.243 372.167C323.359 372.616 323.475 373.065 323.595 373.529C323.828 373.529 324.06 373.529 324.3 373.529C324.184 374.765 324.067 376.001 323.948 377.274C323.599 377.049 323.25 376.825 322.89 376.593C323.006 375.132 323.123 373.672 323.243 372.167Z" fill="#272736"/>
<path d="M215.73 200.555C215.846 200.555 215.962 200.555 216.082 200.555C215.901 202.767 215.565 204.866 215.025 207.024C214.676 207.024 214.327 207.024 213.967 207.024C214.52 204.857 215.075 202.695 215.73 200.555Z" fill="#391E1E"/>
<path d="M326.062 356.844C326.179 356.844 326.295 356.844 326.415 356.844C326.451 358.589 326.428 360.232 326.062 361.951C325.713 361.951 325.364 361.951 325.005 361.951C325.113 361.164 325.224 360.376 325.335 359.589C325.397 359.151 325.458 358.712 325.521 358.261C325.71 357.184 325.71 357.184 326.062 356.844Z" fill="#050508"/>
<path d="M137.827 117.132C136.677 117.762 135.602 118.019 134.302 118.239C133.939 118.304 133.575 118.369 133.201 118.435C132.128 118.497 131.667 118.367 130.777 117.813C133.154 117.385 135.407 117.042 137.827 117.132Z" fill="#533838"/>
<path d="M431.813 88.1895C432.484 89.1619 432.762 89.8686 433.09 90.9774C433.182 91.2842 433.274 91.591 433.369 91.9071C433.437 92.141 433.505 92.375 433.575 92.616C433.226 92.616 432.877 92.616 432.518 92.616C431.238 89.8028 431.238 89.8028 431.813 88.1895Z" fill="#0E0E1D"/>
<path d="M324.3 369.102C324.417 369.102 324.533 369.102 324.653 369.102C324.662 369.584 324.669 370.067 324.675 370.549C324.679 370.818 324.683 371.086 324.687 371.363C324.654 372.135 324.523 372.789 324.3 373.528C324.068 373.528 323.835 373.528 323.595 373.528C323.576 372.982 323.562 372.436 323.551 371.89C323.543 371.586 323.535 371.281 323.526 370.968C323.595 370.123 323.595 370.123 324.3 369.102Z" fill="#0C0C10"/>
<path d="M132.187 118.154C131.125 118.838 130.349 119.082 129.125 119.388C128.6 119.521 128.6 119.521 128.063 119.656C127.796 119.722 127.528 119.788 127.252 119.856C127.369 119.407 127.485 118.957 127.605 118.494C129.154 118.202 130.61 118.123 132.187 118.154Z" fill="#160F0F"/>
<path d="M435.338 99.0855C435.454 99.0855 435.57 99.0855 435.69 99.0855C436.179 100.943 436.48 102.616 436.395 104.534C435.705 103.534 435.508 102.962 435.272 101.81C435.208 101.515 435.145 101.22 435.08 100.916C434.985 100.107 434.985 100.107 435.338 99.0855Z" fill="#282842"/>
<path d="M445.207 142.329C445.556 142.441 445.905 142.554 446.265 142.669C446.032 143.793 445.8 144.917 445.56 146.074C445.211 145.85 444.862 145.625 444.502 145.393C444.735 144.382 444.968 143.371 445.207 142.329Z" fill="#242433"/>
<path d="M322.185 383.403C322.418 383.515 322.65 383.628 322.89 383.744C322.774 384.755 322.657 385.766 322.537 386.808C322.189 386.583 321.84 386.359 321.48 386.127C321.788 383.786 321.788 383.786 322.185 383.403Z" fill="#0D0D20"/>
<path d="M325.357 361.611C325.59 361.723 325.823 361.836 326.062 361.951C325.946 362.963 325.83 363.974 325.71 365.016C325.361 364.791 325.012 364.567 324.652 364.335C324.961 361.994 324.961 361.994 325.357 361.611Z" fill="#0D0D20"/>
<path d="M444.855 145.053C444.971 145.053 445.088 145.053 445.207 145.053C445.091 145.952 444.975 146.851 444.855 147.777C444.506 147.889 444.157 148.002 443.797 148.117C443.973 146.846 444.106 146.138 444.855 145.053Z" fill="#06060C"/>
<path d="M590.085 121.899C591.248 122.011 592.411 122.124 593.61 122.239C593.261 122.408 593.261 122.408 592.905 122.58C592.789 122.805 592.672 123.029 592.552 123.261C591.738 122.924 590.924 122.587 590.085 122.239C590.085 122.127 590.085 122.015 590.085 121.899Z" fill="#141C1A"/>
<path d="M280.238 71.8455C280.47 71.8455 280.703 71.8455 280.943 71.8455C280.731 72.9882 280.292 73.6767 279.533 74.5695C279.3 74.4572 279.067 74.3448 278.828 74.229C279.293 73.4425 279.758 72.6559 280.238 71.8455Z" fill="#121219"/>
<path d="M259.44 88.8705C259.858 89.4238 259.858 89.4238 260.145 90.2325C259.66 91.3391 259.66 91.3391 259.087 92.2755C258.57 90.9765 258.935 90.1337 259.44 88.8705Z" fill="#1B1B28"/>
</g>
<defs>
<clipPath id="clip0_1658_1316">
<rect width="705" height="681" fill="white"/>
</clipPath>
</defs>
</svg>
