<svg width="31" height="24" viewBox="0 0 31 24" fill="none" xmlns="http://www.w3.org/2000/svg">
<path fill-rule="evenodd" clip-rule="evenodd" d="M14.4822 12C14.4822 12.5523 15.0363 13 15.7199 13C16.4036 13 16.9577 12.5523 16.9577 12C16.9577 11.4477 16.4036 11 15.7199 11C15.0363 11 14.4822 11.4477 14.4822 12Z" stroke="#333333"/>
<path fill-rule="evenodd" clip-rule="evenodd" d="M14.4822 6C14.4822 6.55228 15.0363 7 15.7199 7C16.4036 7 16.9577 6.55228 16.9577 6C16.9577 5.44772 16.4036 5 15.7199 5C15.0363 5 14.4822 5.44772 14.4822 6Z" stroke="#333333"/>
<path fill-rule="evenodd" clip-rule="evenodd" d="M14.4822 18C14.4822 18.5523 15.0363 19 15.7199 19C16.4036 19 16.9577 18.5523 16.9577 18C16.9577 17.4477 16.4036 17 15.7199 17C15.0363 17 14.4822 17.4477 14.4822 18Z" stroke="#333333"/>
</svg>
