<svg width="60" height="60" viewBox="0 0 60 60" fill="none" xmlns="http://www.w3.org/2000/svg">
<circle cx="30" cy="30" r="30" fill="#E3F1EE"/>
<path d="M17.3383 21.992L17.6919 21.6384C17.5771 21.5237 17.4139 21.4718 17.2539 21.4992C17.094 21.5265 16.9573 21.6298 16.8873 21.7762L17.3383 21.992ZM22.9764 27.6301L22.6229 27.9837C22.8181 28.1789 23.1347 28.1789 23.33 27.9837L22.9764 27.6301ZM26.6298 23.9767L26.9834 24.3303C27.1786 24.135 27.1786 23.8184 26.9834 23.6232L26.6298 23.9767ZM20.9917 18.3386L20.7758 17.8876C20.6295 17.9576 20.5262 18.0943 20.4989 18.2542C20.4715 18.4142 20.5234 18.5774 20.6381 18.6922L20.9917 18.3386ZM31.3981 28.5234L30.9425 28.3174C30.8568 28.507 30.8974 28.7298 31.0445 28.877L31.3981 28.5234ZM41.0021 40.9559L41.3557 41.3094L41.0021 40.9559ZM36.4813 42.6483L36.8348 42.2947L36.4813 42.6483ZM26.5843 32.7513L26.9378 32.3977C26.8074 32.2673 26.6158 32.2193 26.4393 32.2728L26.5843 32.7513ZM16.8873 21.7762C16.3716 22.8538 16.083 24.0606 16.083 25.3333H17.083C17.083 24.2131 17.3367 23.1536 17.7893 22.2078L16.8873 21.7762ZM23.33 27.2766L17.6919 21.6384L16.9847 22.3455L22.6229 27.9837L23.33 27.2766ZM26.2763 23.6232L22.6229 27.2766L23.33 27.9837L26.9834 24.3303L26.2763 23.6232ZM20.6381 18.6922L26.2763 24.3303L26.9834 23.6232L21.3452 17.9851L20.6381 18.6922ZM24.333 17.0833C23.0603 17.0833 21.8535 17.3719 20.7758 17.8876L21.2075 18.7896C22.1533 18.337 23.2128 18.0833 24.333 18.0833V17.0833ZM32.583 25.3333C32.583 20.777 28.8894 17.0833 24.333 17.0833V18.0833C28.3371 18.0833 31.583 21.3292 31.583 25.3333H32.583ZM31.8537 28.7294C32.3224 27.6931 32.583 26.543 32.583 25.3333H31.583C31.583 26.3981 31.3538 27.4079 30.9425 28.3174L31.8537 28.7294ZM31.0445 28.877L40.6486 38.481L41.3557 37.7739L31.7516 28.1698L31.0445 28.877ZM40.6486 38.481C41.2344 39.0668 41.2344 40.0165 40.6486 40.6023L41.3557 41.3094C42.332 40.3331 42.332 38.7502 41.3557 37.7739L40.6486 38.481ZM40.6486 40.6023L38.9562 42.2947L39.6633 43.0018L41.3557 41.3094L40.6486 40.6023ZM38.9562 42.2947C38.3704 42.8805 37.4206 42.8805 36.8348 42.2947L36.1277 43.0018C37.1041 43.9781 38.687 43.9781 39.6633 43.0018L38.9562 42.2947ZM36.8348 42.2947L26.9378 32.3977L26.2307 33.1048L36.1277 43.0018L36.8348 42.2947ZM24.333 33.5833C25.1657 33.5833 25.9704 33.4598 26.7293 33.2298L26.4393 32.2728C25.7733 32.4746 25.0663 32.5833 24.333 32.5833V33.5833ZM16.083 25.3333C16.083 29.8897 19.7767 33.5833 24.333 33.5833V32.5833C20.3289 32.5833 17.083 29.3374 17.083 25.3333H16.083Z" fill="#333333"/>
</svg>
