<svg width="16" height="14" viewBox="0 0 16 14" fill="none" xmlns="http://www.w3.org/2000/svg">
<path d="M15.2726 2.39295C15.2726 1.02863 13.3577 0 10.8181 0C8.27846 0 6.36353 1.02863 6.36353 2.39295C6.36353 2.40507 6.36631 2.41652 6.36666 2.42848H6.36353V4.24983H7.63621V4.09942C8.43263 4.52791 9.54697 4.78557 10.8181 4.78557C11.9907 4.78557 13.0267 4.56427 13.8059 4.19389C13.9267 4.31309 14 4.43162 14 4.53555C14 5.00454 12.7309 5.71393 10.8181 5.71393H9.54575V6.92816H10.8181C11.9909 6.92816 13.0273 6.70687 13.8065 6.33632C13.9274 6.45535 13.9998 6.57389 13.9998 6.67831C13.9998 7.14764 12.7308 7.85702 10.8179 7.85702L10.3674 7.85901C10.0906 7.86134 9.82242 7.86383 9.56106 7.85719L9.52992 9.07093C9.66982 9.07425 9.81146 9.07541 9.95588 9.07541C10.0939 9.07541 10.2343 9.07458 10.377 9.07342L10.8179 9.07143C11.9914 9.07143 13.0281 8.8498 13.8075 8.47892C13.9288 8.59895 13.9996 8.71814 13.9996 8.82124C13.9996 9.29057 12.7306 9.99995 10.8177 9.99995H9.5454V11.2142H10.8177C11.9912 11.2142 13.0278 10.9926 13.8073 10.6217C13.9288 10.7415 13.9996 10.8607 13.9996 10.964C13.9996 11.4333 12.7306 12.1427 10.8177 12.1427H9.5454V13.357H10.8177C13.3574 13.357 15.2723 12.3283 15.2723 10.964C15.2723 10.9527 15.2707 10.9399 15.2704 10.9285H15.2723V2.42848H15.2692C15.2697 2.41652 15.2726 2.4049 15.2726 2.39295ZM7.63621 2.39295C7.63621 1.92362 8.90523 1.21424 10.8181 1.21424C12.7309 1.21424 14 1.92362 14 2.39295C14 2.86194 12.7309 3.57133 10.8181 3.57133C8.90523 3.57133 7.63621 2.86194 7.63621 2.39295Z" fill="#FA3B3B"/>
<path d="M4.45456 4.24976C1.91494 4.24976 0 5.27839 0 6.64271C0 6.65482 0.0027841 6.66628 0.00313212 6.67823H0V10.9282C0 12.2925 1.91494 13.3212 4.45456 13.3212C6.99418 13.3212 8.90911 12.2925 8.90911 10.9282V6.6784H8.90598C8.90633 6.66645 8.90911 6.65482 8.90911 6.64287C8.90911 5.27855 6.99418 4.24976 4.45456 4.24976ZM1.27268 8.78563C1.27268 8.68071 1.34455 8.56234 1.46548 8.44331C2.24485 8.81402 3.28141 9.03549 4.45456 9.03549C5.62718 9.03549 6.66322 8.81419 7.44242 8.44381C7.56318 8.56301 7.63643 8.68154 7.63643 8.78547C7.63643 9.25446 6.36741 9.96385 4.45456 9.96385C2.54171 9.96385 1.27268 9.25463 1.27268 8.78563ZM4.45456 5.46416C6.36741 5.46416 7.63643 6.17354 7.63643 6.64287C7.63643 7.11187 6.36741 7.82125 4.45456 7.82125C2.54171 7.82125 1.27268 7.11187 1.27268 6.64287C1.27268 6.17354 2.54171 5.46416 4.45456 5.46416ZM4.45456 12.1071C2.54171 12.1071 1.27268 11.3977 1.27268 10.9284C1.27268 10.824 1.34524 10.7054 1.466 10.5864C2.24537 10.957 3.28158 11.1784 4.45456 11.1784C5.62736 11.1784 6.66374 10.9571 7.44294 10.5866C7.56387 10.7056 7.63626 10.8241 7.63626 10.9286C7.63643 11.3977 6.36741 12.1071 4.45456 12.1071Z" fill="#FA3B3B"/>
</svg>
